<svg xmlns="http://www.w3.org/2000/svg" width="231.501" height="415.622"><path fill="#85C1EA" stroke="#000" stroke-width="3" stroke-miterlimit="10" d="M58.816 102.349c.684-3.138-2.316-5.138-2.977-7.14-.342-.533-.682-1.057-.999-1.58a19.098 19.098 0 0 1-.867-1.569 43.499 43.499 0 0 0-1.443-1.921c-15.04-18.881-33.81-7.956-40.199-1.651C5.529 95.2-7.82 116.754 14.58 132.539c.679.479 1.39.952 2.13 1.423 3.895 2.125 8.093 5.437 12.566 7.343.896.383 1.803.709 2.722.97 9.584 3.28 18.126-4.507 22.501-13.653.438-.915.832-1.845 1.177-2.782 2.823-6.629 2.823-13.629 3.146-21.924 0-.946-.006-1.567-.006-1.567z"/><path d="M46.644 106.535a28.321 28.321 0 0 0-1.237-2.501c-6.508-11.161-15.581-5.984-18.499-3.105-2.723 2.688-7.949 11.047-.247 17.56a21.66 21.66 0 0 0 1.809 1.412c2.409 2.493 4.995 3.429 7.457 3.271a9.092 9.092 0 0 0 2.407-.499c5.166-2.46 10.166-8.46 8.571-14.238-.126-.958-.261-1.9-.261-1.9z"/><path fill="#85C1EA" stroke="#000" stroke-width="3" stroke-miterlimit="10" d="M172.362 101.714c-.366-.97.376-1.712 1.302-2.706.222-.437.446-.865.672-1.284 15.572-28.993 38.018-16.252 45.128-9.236 7.42 7.322 22.632 32.307-9.275 48.197-.997.497-1.97.937-2.92 1.322-.95.396-1.876.739-2.779 1.041-13.989 8.163-24.989-4.837-29.582-17.284a80.25 80.25 0 0 1-1.197-2.921c-1.887-4.903-3.103-9.961-1.709-14.949.204-1.242.36-2.18.36-2.18z"/><path d="M185.124 106.489c6.536-14.317 16.651-8.632 19.764-5.561 3.112 3.071 9.492 13.551-3.891 20.216-13.384 6.665-16.496-11.042-16.496-11.042l.623-3.613z"/><path fill="#85C1EA" stroke="#000" stroke-width="3" stroke-miterlimit="10" d="M121.026 85.338c14.474.873 28.474.873 41.337 5.45 1.015.371 2.013.767 2.994 1.188 8.838 3.785 16.377 9.528 23.097 16.143a118.88 118.88 0 0 1 1.585 1.591c2.109 1.992 4.091 4.22 6.149 6.405.514.546 1.033 1.09 1.561 1.626 2.444 2.295 4.67 3.779 6.619 6.262a59.9 59.9 0 0 1 1.585 1.899c3.848 4.81 6.842 10.076 9.046 15.638.367.927.713 1.862 1.034 2.799 2.01 9.842 1.9 19.508 1.25 29.143a323.895 323.895 0 0 1-.237 3.274c-1.546 18.455-1.546 36.455-2.937 54.849a551.714 551.714 0 0 0-.051 3.144c-.297 22.514 1.322 45.074 2.766 67.426l.219 3.41c.073 1.031.149 2.063.229 3.097l.233 3.122c-.005 26.407 3.995 57.407-17.646 75.829a77.244 77.244 0 0 1-2.269 2.316c-9.308 9.123-21.338 16.441-33.544 19.093-1.938.298-3.881.563-5.827.802-13.622 1.669-27.409 2.026-40.853 3.213a255.444 255.444 0 0 1-5.659-.258c-9.27-.524-17.735-1.52-25.445-3.059a124.124 124.124 0 0 1-7.17-1.646c-9.098-1.424-17.62-4.176-25.119-8.132-3.835-2.023-7.403-4.361-10.643-6.998a57.72 57.72 0 0 1-3.925-3.496c-3.078-3.184-5.678-6.672-7.884-10.372a66.592 66.592 0 0 1-3.026-5.696c-11.356-21.216-10.693-45.139-7.242-68.424a253.89 253.89 0 0 1 .807-6.626c.422-1.868.638-3.754.725-5.65a49.3 49.3 0 0 0 .042-2.854c3.299-26.566-.215-53.314-2.035-80.359a543.062 543.062 0 0 1-.218-3.382c-2.074-20.894-1.074-40.894 5.307-61.13.286-1.05.575-2.099.87-3.145 2.656-9.404 5.812-18.578 11.426-26.219a45.415 45.415 0 0 1 1.828-2.326 114.525 114.525 0 0 1 8.973-8.627c.786-.674 1.58-1.335 2.383-1.982 4.997-3.825 9.926-7.422 15.046-9.829a38.514 38.514 0 0 1 2.209-.961c10.92-4.589 22.368-6.496 33.892-6.911 1.048-.038 2.096-.063 3.145-.077 4.847.313 8.847.313 13.714.406l1.659.034z"/><path fill="#FFF" stroke="#000" stroke-width="3" stroke-miterlimit="10" d="M107.714 127.261c-.542 5.095-2.906 9.794-6.272 13.631-.42.48-.857.946-1.308 1.398a19.47 19.47 0 0 1-5.169 4.563 21.07 21.07 0 0 1-2.02 1.087c-5.829 3.033-12.55 2.781-18.556.635a38.22 38.22 0 0 1-2.526-1.014c-8.523-3.262-14.028-11.39-14.629-19.886a21.689 21.689 0 0 1-.016-2.839c.641-7.812 5.711-14.468 12.452-18.371a28.09 28.09 0 0 1 2.983-1.499c8.846-3.754 19.846-2.754 26.462 4.065.73.649 1.427 1.339 2.085 2.064 1.974 2.176 3.597 4.669 4.727 7.313.308.719.579 1.449.812 2.188.701 1.376.701 3.603.948 4.974.029.562.038 1.125.027 1.691z"/><path d="M88.656 118.589c-1.25 5.794-8.67 8.763-13.123 4.311-1.484-1.484-2.226-3.215-2.363-4.919a7.407 7.407 0 0 1 1.264-4.754c2.066-2.123 4.066-4.123 8.566-2.488 1.448.535 2.777 1.441 3.787 2.675s1.7 2.796 1.87 4.645c.005.176.005.354-.001.53z"/><path fill="#FFF" d="M83.374 115.943c-.42 1.356-1.904 2.098-3.389 1.356-1.484-.742-.742-2.226 0-2.968 1.484 0 2.968-.742 3.394 1.483 0 .043-.002.087-.005.129z"/><path fill="#FFF" stroke="#000" stroke-width="3" stroke-miterlimit="10" d="M180.57 127.692c-1.07 8.519-7.07 17.519-15.816 20.311-.831.297-1.683.581-2.547.821-5.191 1.441-10.896 1.165-16-.5a24.887 24.887 0 0 1-4.017-2.124c-7.606-4.954-12.433-13.917-10.039-23.06.145-.723.316-1.44.516-2.149 1.591-5.666 4.9-10.733 9.222-13.072a31.439 31.439 0 0 1 1.595-.965c2.694-1.525 5.568-2.626 8.495-3.244a28.218 28.218 0 0 1 2.203-.374c9.28-1.165 19.072 4.31 23.998 12.665a22.884 22.884 0 0 1 2.329 5.456c-.009.755-.009 2.755.092 4.2.009.673-.002 1.353-.031 2.035zM107.007 166.836c-.258 9.264-1.166 13.333 6.918 13.316 5.507-.011 4.366-8.569 4.204-14.552-.162-5.982-2.426-11.318-2.426-11.318l-9.377 2.264.681 10.29z"/><path fill="#FFF" stroke="#000" stroke-width="3" stroke-miterlimit="10" d="M118.542 155.899c.51 16.815-.622 23.283 3.421 23.606 4.042.323 7.739 2.102 7.104-8.084-.637-10.186-2.092-15.522-2.092-15.522h-8.433z"/><path fill="#F1C48D" stroke="#000" stroke-width="3" stroke-miterlimit="10" d="M108.75 145.522c-2.794 2.68-6.504 3.421-8.854 6.436-.479.402-.95.806-1.4 1.219-1.802 1.652-3.274 3.458-3.62 5.955a7.182 7.182 0 0 0-.087 1.722c.205 2.85 2.185 5.58 6.316 7.98 8.28 4.811 16.748-5.724 18.274-6.441 0 0 13.74 12.909 20.207 2.884 2.311-3.58 2.613-6.9 1.425-9.799a10.066 10.066 0 0 0-.888-1.688c-3.002-4.847-9.68-7.815-15.561-8.649-.476-.1-.959-.193-1.447-.279-3.418-.601-6.025-.861-8.014-.913-.994-.026-1.834 0-2.542.063-1.408.479-2.15 1.221-3.483 1.071-.28.249-.326.439-.326.439z"/><path d="M129.016 146.497c-.799.963-1.541 1.705-1.455 2.498-.364.38-.777.74-1.225 1.08-1.342 1.018-2.993 1.847-4.57 2.454-.269.066-.538.125-.811.178-2.186.42-4.525.406-6.563-.197a16.04 16.04 0 0 1-.779-.282 18.234 18.234 0 0 1-2.887-1.447 21.554 21.554 0 0 1-1.309-.872 25.36 25.36 0 0 1-1.221-.937c-2.241-4.479 2.954-8.188 6.486-8.762a18.852 18.852 0 0 1 1.915-.363 17.505 17.505 0 0 1 3.893-.097 15.003 15.003 0 0 1 2.2.53c1.816 1.987 6.269 1.987 6.325 5.753.009.153.009.308.001.464z"/><path fill="none" stroke="#000" stroke-width="3" stroke-miterlimit="10" d="M74.175 228.372c.617 18.18 4.327 34.153-14.966 43.79M159.975 229.477c.013.711.019 1.426.021 2.142.03 7.878-.359 15.995 2.445 23.601.226.745.471 1.473.746 2.183 2.204 5.681 6.36 10.222 14.374 12.151"/><path fill="#F1C48D" stroke="#000" stroke-width="3" stroke-miterlimit="10" d="M74.863 248.592c21.076 2.412 23.613 10.448 16.624 9.461-7.739-1.093-8.418-1.345-8.418-1.345s19.178 7.281 8.79 8.023c-10.388.742-20.696-3.009-20.696-3.009s2.582-8.24 3.135-11.955c.551-3.715.565-1.175.565-1.175z"/><path fill="#FFF" stroke="#000" stroke-width="3" stroke-miterlimit="10" d="M83.068 256.708l-5.68-1.252"/><path fill="#F1C48D" stroke="#000" stroke-width="3" stroke-miterlimit="10" d="M161.628 252.197c-1.504-.081-3.73-.823-5.368.3-.533.016-1.044.027-1.531.034-7.806.127-9.854-.526-10.002 2.739-.186 4.081 2.227 4.545 14.099 2.18 0 0-22.952.983-12.682 8.12 10.271 7.138 18.396-5.289 18.396-5.289l-.73-2.091-.679-1.942c-.237-.672-.48-1.347-.7-1.947-.454-1.201-.803-2.104-.803-2.104zM46.57 395.602c-14.074 17.534-7.403 23.286 0 13.823 7.403-9.462.724-4.65.724-4.65s-10.66 17.202 2.765 8.282c13.425-8.919 7.64-11.27 7.64-11.27l-11.129-6.185zM180.517 404.624c13.416 10.135 22.141 14.497 17.778 6.741s-8.322-8.366-8.322-8.366 15.108 11.718 15.108 6.164-16.196-11.521-16.196-11.521l-8.368 6.982z"/><path d="M162.919 118.332c-1.25 5.794-8.67 8.763-13.122 4.311s-2.227-11.13 2.968-12.614c4.452-.742 9.646 2.226 10.155 7.772a7.23 7.23 0 0 1-.001.531z"/><path fill="#FFF" d="M157.637 115.686c-.42 1.357-1.904 2.099-3.388 1.357-1.484-.742-.742-2.226 0-2.968 1.483 0 2.968-.742 3.393 1.483.001.043-.001.086-.005.128z"/><path d="M45.719 8.952a6.658 6.658 0 0 1 4.802-1.535l.327 2.222a5.873 5.873 0 0 0-4.019.751c.574.864.882 1.883.882 2.931 0 3.193-2.806 5.924-6.232 5.924a6.31 6.31 0 0 1-2.197-.393c-.17.14-1.236 1.019-1.236 1.935 0 .544.386.953 1.048 1.135.369.101 1.18.218 2.47.218 1.959 0 4.049-.244 5.855.49 1.837.747 2.689 2.258 2.689 3.755 0 2.32-2.1 5.288-7.958 5.288-6.061 0-7.82-2.211-7.82-4.097 0-1.374.957-2.646 2.813-3.831-1.093-.574-1.387-1.584-1.387-2.305 0-1.11.71-2.281 1.958-3.338a5.602 5.602 0 0 1-2.558-4.684c0-3.379 3.022-6.115 6.465-6.115 1.578-.002 3.032.586 4.098 1.649zm-8.888 17.979c0 .604.306 1.556 1.704 2.111 1.308.521 2.78.565 3.569.565 1.158 0 2.621-.074 3.889-.758 1.188-.64 1.619-1.545 1.619-2.295 0-.762-.461-1.771-2.064-2.012-.992-.15-2.388-.053-3.664-.101-1.324-.049-2.242-.123-2.896-.208-.996.546-2.157 1.454-2.157 2.698zm4.624-9.875a3.807 3.807 0 0 0 3.808-3.801 3.804 3.804 0 0 0-3.806-3.798 3.807 3.807 0 0 0-3.81 3.799c0 2.096 1.706 3.8 3.808 3.8zM61.447 25.615c-4.359 0-8.106-3.709-8.106-8.971 0-5.344 3.779-9.163 8.187-9.163 3.931 0 7.699 3.134 7.699 9.106 0 5.734-3.685 9.028-7.78 9.028zm-5.226-9.207c0 4.267 2.491 6.855 5.247 6.855 2.525 0 5.018-2.209 5.018-6.563 0-4.748-2.647-6.901-5.144-6.901-2.645 0-5.121 2.369-5.121 6.609zM81.587 0v22.969h5.098v2.188H73.713v-2.188h5.13V2.188h-4.901V0h7.645zM99.276 7.481c2.684 0 4.878.981 6.013 2.874.798 1.331.85 2.67.85 4.086v10.717h-2.581v-1.895c-1.887 1.546-4.086 2.319-6.211 2.319-3.612 0-5.818-2.358-5.818-4.896 0-1.917 1.238-3.938 3.966-4.94 2.2-.808 4.928-.783 7.476-.783h.556v-.621c0-.917.013-2.028-.563-2.976-.488-.801-1.503-1.665-3.558-1.665-1.598 0-3.545.444-4.962 1.928L93.103 9.9c1.616-1.67 3.839-2.419 6.173-2.419zm3.726 9.575c-1.797 0-4.114-.113-5.685.262-2.167.517-3.05 1.93-3.05 3.186 0 1.547 1.34 2.994 3.632 2.994 2.266 0 3.92-1.373 4.549-2.041 1.167-1.241 1.174-2.362 1.174-3.257v-1.144h-.62zM111.184 7.875h2.776v3.038c1.271-1.927 3.403-3.463 5.751-3.463 1.97 0 3.742 1.106 4.604 3.052.614 1.391.625 2.818.625 4.168v10.488h-2.68V14.735c0-1.222-.008-2.706-.944-3.826a3.021 3.021 0 0 0-2.345-1.095c-1.829 0-3.491 1.53-4.15 2.408-.719.958-.86 1.805-.86 2.97v9.964h-2.776V7.875zM140.374 8.952a6.664 6.664 0 0 1 4.804-1.535l.325 2.222a5.861 5.861 0 0 0-4.017.751 5.31 5.31 0 0 1 .881 2.931c0 3.193-2.807 5.924-6.232 5.924a6.315 6.315 0 0 1-2.197-.393c-.17.14-1.235 1.019-1.235 1.935 0 .544.386.953 1.048 1.135.369.101 1.18.218 2.471.218 1.96 0 4.048-.244 5.854.49 1.836.747 2.689 2.258 2.689 3.755 0 2.32-2.102 5.288-7.959 5.288-6.061 0-7.821-2.211-7.821-4.097 0-1.374.958-2.646 2.813-3.831-1.093-.574-1.388-1.584-1.388-2.305 0-1.11.712-2.281 1.959-3.338a5.602 5.602 0 0 1-2.558-4.684c0-3.379 3.023-6.115 6.466-6.115 1.578-.002 3.032.586 4.097 1.649zm-8.887 17.979c0 .604.307 1.556 1.704 2.111 1.308.521 2.778.565 3.569.565 1.156 0 2.619-.074 3.889-.758 1.186-.64 1.618-1.545 1.618-2.295 0-.762-.461-1.771-2.064-2.012-.991-.15-2.388-.053-3.665-.101-1.323-.049-2.241-.123-2.898-.208-.993.546-2.153 1.454-2.153 2.698zm4.623-9.875a3.807 3.807 0 0 0 3.81-3.801 3.806 3.806 0 0 0-3.808-3.798 3.807 3.807 0 0 0-3.81 3.799 3.807 3.807 0 0 0 3.808 3.8zM171.016 0c.041.255-.126.43-.213.544a.587.587 0 0 0-.146.436v14.833l8.659-8.037c.67.166 1.362.196 2.023.196h.981l-7.286 6.86 8.494 10.357h-.265c-1.813 0-3.263.13-3.263.13l-7.06-8.82-2.285 2.124v6.566h-2.745V0h3.106zM190.925 7.875l-.098 3.332c1.134-2.473 3.698-3.751 6.226-3.751 1.941 0 3.534.774 4.623 1.889l-1.275 2.613c-.292-.278-.414-.577-.642-.867-.486-.621-1.4-1.296-2.856-1.296-1.222 0-3.286.43-4.859 2.916-1.174 1.859-1.216 3.007-1.216 4.051v8.429h-2.744V7.875h2.841z"/></svg>