<svg xmlns="http://www.w3.org/2000/svg" width="212.205" height="379.909"><path fill="#E0A999" stroke="#000" stroke-width="3" d="M138.415 26.074c13.171-10.871 42.797-39.553 65.685-10.854 22.887 28.698-25.377 65.043-33.18 56.658-7.805-8.387-32.505-45.804-32.505-45.804z"/><path d="M167.416 26.09c4.979-4.322 17.645-12.743 26.022-1.661 8.38 11.083-9.841 25.559-12.707 22.325-2.863-3.232-13.315-20.664-13.315-20.664z"/><path fill="#E0A999" stroke="#000" stroke-width="3" d="M34.375 80.253c-13.088-10.969-46.69-34.872-22.644-62.606S80.31 30.743 73.487 39.944c-6.823 9.202-39.112 40.309-39.112 40.309z"/><path d="M33.876 52.355c-5.96-2.817-18.766-11.021-11.993-23.153 6.772-12.132 27.357-1.277 25.55 2.646-1.805 3.923-13.557 20.507-13.557 20.507z"/><path fill="#E6AE9C" stroke="#000" stroke-width="3" d="M88.477 285.409c-40.571-4.285-71.242-36.734-71.496-78.777-.106-17.666 4.604-33.894 5.089-51.403.647-23.365-2.725-36.244-1.147-58.047l.011-.168c.024-.37.058-.876.162-1.479l.075-.437c3.719-21.65 5.83-44.853 23.1-60.018 19.343-16.986 48.003-26.863 73.205-24.201l14.414 1.522c64.686 6.833 81.493 68.697 70.205 124.528-8.954 44.299 17.102 117.765-39.593 141.8l-.521.22-.551.118c-18.964 4.079-38.986 9.933-58.542 7.866l-14.411-1.524z"/><path fill="#FFF" d="M101.687 67.504c-.528 4.996-2.397 8.981-5.11 12.163-2.868 3.365-6.613 5.866-11.123 7.177-4.052 1.178-8.586 1.229-13.333.727-4.748-.501-8.968-1.876-12.685-3.875-4.136-2.224-7.513-5.057-9.614-8.947-1.988-3.679-2.535-7.94-2.007-12.937.523-4.956 2.238-9.24 4.977-12.997 2.825-3.876 6.398-6.909 10.779-8.862 4.247-1.893 8.842-2.59 13.798-2.067 4.957.523 9.276 2.206 13.034 4.944 3.876 2.825 7.605 6.124 9.557 10.505 1.893 4.248 2.25 9.213 1.727 14.169z"/><path fill="none" stroke="#000" stroke-width="3" d="M101.687 67.504c-.528 4.996-2.397 8.981-5.11 12.163-2.868 3.365-6.613 5.866-11.123 7.177-4.052 1.178-8.586 1.229-13.333.727-4.748-.501-8.968-1.876-12.685-3.875-4.136-2.224-7.513-5.057-9.614-8.947-1.988-3.679-2.535-7.94-2.007-12.937.523-4.956 2.238-9.24 4.977-12.997 2.825-3.876 6.398-6.909 10.779-8.862 4.247-1.893 8.842-2.59 13.798-2.067 4.957.523 9.276 2.206 13.034 4.944 3.876 2.825 7.605 6.124 9.557 10.505 1.893 4.248 2.25 9.213 1.727 14.169z"/><path fill="#FFF" d="M173.698 70.246c-.527 4.996-2.396 8.981-5.108 12.163-2.868 3.365-6.614 5.866-11.123 7.177-4.053 1.178-8.587 1.228-13.334.727s-8.968-1.876-12.685-3.875c-4.136-2.224-7.514-5.057-9.615-8.947-1.987-3.679-2.534-7.94-2.006-12.937.523-4.957 2.237-9.24 4.976-12.998 2.824-3.876 6.398-6.909 10.779-8.862 4.247-1.893 8.843-2.591 13.799-2.067s9.275 2.206 13.033 4.944c3.877 2.825 7.605 6.125 9.558 10.506 1.892 4.248 2.25 9.213 1.726 14.169z"/><path fill="none" stroke="#000" stroke-width="3" d="M173.698 70.246c-.527 4.996-2.396 8.981-5.108 12.163-2.868 3.365-6.614 5.866-11.123 7.177-4.053 1.178-8.587 1.228-13.334.727s-8.968-1.876-12.685-3.875c-4.136-2.224-7.514-5.057-9.615-8.947-1.987-3.679-2.534-7.94-2.006-12.937.523-4.957 2.237-9.24 4.976-12.998 2.824-3.876 6.398-6.909 10.779-8.862 4.247-1.893 8.843-2.591 13.799-2.067s9.275 2.206 13.033 4.944c3.877 2.825 7.605 6.125 9.558 10.506 1.892 4.248 2.25 9.213 1.726 14.169z"/><path fill="#FFF" stroke="#000" stroke-width="3" d="M97.594 100.968c-1.339 14.956-3.945 23.632 7.654 23.111 8.304-.373 4.503-29.356 4.503-29.356s1.294 19.176 1.064 25.485c-.183 5.04 11.993 7.314 12.161-2.364.134-7.779-3.38-16.861-3.38-16.861l-10.06-8.122-11.942 8.107z"/><path fill="#D09E85" stroke="#000" stroke-width="3" d="M103.783 84.774c-13.997 5.934-18.825 6.968-18.172 15.685.651 8.717 15.301 11.5 19.447 5.76l4.146-5.738s.074 7.729 11.04 7.652c10.968-.077 26.519-9.553 10.83-17.386-15.689-7.835-20.583-9.896-20.583-9.896l-6.708 3.923z"/><path d="M120.144 82.453c-.455 4.312-5.026 6.132-10.396 5.565-5.369-.567-9.497-3.307-9.042-7.618.456-4.312 5.184-7.256 10.554-6.688 5.367.568 9.339 4.43 8.884 8.741z"/><path fill="none" stroke="#000" stroke-width="3" d="M120.144 82.453c-.455 4.312-5.026 6.132-10.396 5.565-5.369-.567-9.497-3.307-9.042-7.618.456-4.312 5.184-7.256 10.554-6.688 5.367.568 9.339 4.43 8.884 8.741z"/><path d="M142.593 69.002c-.537 5.082-4.668 7.378-9.439 6.874-4.771-.504-8.363-3.616-7.826-8.698.537-5.081 4.842-8.711 9.611-8.207 4.771.505 8.191 4.95 7.654 10.031z"/><path fill="#FFF" d="M132.067 67.974c-.114 1.079-.991 1.567-2.006 1.46-1.013-.106-1.775-.768-1.662-1.848s1.028-1.85 2.042-1.743 1.741 1.052 1.626 2.131z"/><path d="M71.888 66.763c-.537 5.081-4.668 7.377-9.438 6.874-4.771-.504-8.364-3.616-7.827-8.698.537-5.082 4.843-8.711 9.613-8.208 4.769.504 8.188 4.95 7.652 10.032z"/><path fill="#FFF" d="M61.362 65.735c-.114 1.079-.991 1.566-2.004 1.459-1.014-.107-1.777-.768-1.663-1.848.114-1.079 1.029-1.85 2.042-1.743 1.013.107 1.74 1.052 1.625 2.132z"/><path fill="#E6AE9C" stroke="#000" stroke-width="3" d="M69.853 136.519c12.273 17.97-13.326 37.772-17.811 35.632M159.283 142.214c-3.823 12.518 5.263 25.147 16.131 28.798"/><path fill="#FBD7B3" stroke="#000" stroke-width="3" d="M73.267 146.674c24.939 1.592 14.131 9.204 10.14 7.532l-7.433-.663s15.17.229 12.319 6.598c-2.852 6.367-8.74 3.364-14.11-1.49l-3.169-2.866 2.253-9.111zM163.526 162.88c-20.088 14.865-16.735 2.078-12.607.783l6.107-4.287s-17.029 9.018-13.67 2.903c4.51-8.208 7.979-10.062 15.207-9.66.499.027.809 1.846.809 1.846l4.154 8.415zM45.339 268.181c-13.332 21.836-16.646 9.48-13.087 7.019l6.791-7.439s-10.586 13.614-12.195 6.825c-1.396-5.889 2.634-6.782 8.855-11.084 3.515-2.431 4.122-1.126 4.122-1.126l5.514 5.805zM172.774 273.552c26.398 20.763 7.87 19.682 6.121 15.725l-7.714-9.618s14.751 15.943 4.419 13.257c-10.822-2.815-8.86-3.215-9.229-10.776-.207-4.268-.334-4.261-.334-4.261l6.737-4.327z"/><g><path fill="#F6DE51" d="M108.822 144.07c.191-2.099.214-4.455-.609-6.55-2.821-7.189-11.076-10.334-18.265-7.512-7.188 2.821-10.663 10.571-7.842 17.759 2.822 7.189 10.654 10.538 17.842 7.715 2.952-1.159 5.33-3.03 6.864-5.544.501-.376.629.185.929.734 1.487 2.737.394 3.4 2.655 5.542 2.827 2.677 4.016.764 7.034 3.222 1.652 1.346-.422 3.165 1.611 3.805 2.521.792 2.287-2.367 4.809-1.574 2.033.639-.351 2.902 1.701 3.48 2.709.762 2.498-2.724 5.221-2.017 1.977.513-.618 3.851 1.378 4.282 3 .648 2.708-2.803 5.74-2.328 1.774.278-.48 3.317 1.307 3.488 3.522.338 5.273.396 6.649-2.864 1.409-3.338.393-4.827-2.551-6.942-7.596-5.459-8.64-3.706-17.348-7.123-8.726-3.423-8.98-2.972-17.125-7.573zm-13.571-1.167c-1.28 2.649-3.902 3.726-5.9 2.761-1.999-.965-2.985-3.785-1.705-6.435 1.28-2.65 4.306-4.053 6.304-3.087 1.999.964 2.581 4.11 1.301 6.761z"/><path fill="none" stroke="#000" stroke-width="3" d="M108.822 144.07c.191-2.099.214-4.455-.609-6.55-2.821-7.189-11.076-10.334-18.265-7.512-7.188 2.821-10.663 10.571-7.842 17.759 2.822 7.189 10.654 10.538 17.842 7.715 2.952-1.159 5.33-3.03 6.864-5.544.501-.376.629.185.929.734 1.487 2.737.394 3.4 2.655 5.542 2.827 2.677 4.016.764 7.034 3.222 1.652 1.346-.422 3.165 1.611 3.805 2.521.792 2.287-2.367 4.809-1.574 2.033.639-.351 2.902 1.701 3.48 2.709.762 2.498-2.724 5.221-2.017 1.977.513-.618 3.851 1.378 4.282 3 .648 2.708-2.803 5.74-2.328 1.774.278-.48 3.317 1.307 3.488 3.522.338 5.273.396 6.649-2.864 1.409-3.338.393-4.827-2.551-6.942-7.596-5.459-8.64-3.706-17.348-7.123-8.726-3.423-8.98-2.972-17.125-7.573zm-13.571-1.167c-1.28 2.649-3.902 3.726-5.9 2.761-1.999-.965-2.985-3.785-1.705-6.435 1.28-2.65 4.306-4.053 6.304-3.087 1.999.964 2.581 4.11 1.301 6.761z"/></g><g><path d="M73.184 321.088a6.498 6.498 0 0 1 4.688-1.498l.319 2.168a5.725 5.725 0 0 0-3.922.733c.56.843.861 1.838.861 2.86 0 3.115-2.74 5.782-6.082 5.782a6.185 6.185 0 0 1-2.145-.385c-.166.138-1.206.994-1.206 1.888 0 .532.376.93 1.022 1.107.36.1 1.151.212 2.411.212 1.913 0 3.952-.236 5.714.479 1.792.728 2.625 2.203 2.625 3.663 0 2.264-2.05 5.162-7.767 5.162-5.916 0-7.632-2.158-7.632-3.999 0-1.342.933-2.582 2.745-3.738-1.066-.561-1.354-1.547-1.354-2.249 0-1.086.694-2.226 1.912-3.259a5.464 5.464 0 0 1-2.495-4.57c0-3.299 2.948-5.969 6.309-5.969 1.539.002 2.957.576 3.997 1.613zm-8.673 17.545c0 .591.299 1.52 1.664 2.062 1.276.507 2.712.552 3.483.552 1.13 0 2.557-.071 3.794-.739 1.159-.626 1.58-1.509 1.58-2.24 0-.743-.45-1.728-2.015-1.964-.969-.146-2.33-.053-3.576-.099-1.292-.048-2.188-.12-2.827-.204-.97.533-2.103 1.419-2.103 2.632zm4.512-9.637a3.716 3.716 0 0 0 3.717-3.709c0-2.044-1.664-3.706-3.715-3.706s-3.717 1.662-3.717 3.708a3.712 3.712 0 0 0 3.715 3.707zM88.532 337.35c-4.254 0-7.911-3.62-7.911-8.755 0-5.216 3.688-8.942 7.989-8.942 3.836 0 7.515 3.059 7.515 8.887.001 5.595-3.596 8.81-7.593 8.81zm-5.101-8.986c0 4.164 2.432 6.689 5.122 6.689 2.464 0 4.896-2.155 4.896-6.404 0-4.634-2.584-6.736-5.019-6.736-2.581 0-4.999 2.313-4.999 6.451zM100.884 320.004c.098.287 0 .535-.061.73a1.115 1.115 0 0 0-.035.672l2.455 12.181 2.902-11.989h1.626l3.571 11.957c1.454-9.604 1.629-11.479 1.563-13.519h2.456a232.05 232.05 0 0 1-2.807 16.899h-2.486l-3.125-10.938-2.965 10.938h-2.392l-3.412-16.932h2.71zM125.445 319.651c2.621 0 4.762.958 5.869 2.805.781 1.299.83 2.604.83 3.989v10.458h-2.52v-1.85c-1.842 1.51-3.986 2.264-6.061 2.264-3.527 0-5.68-2.301-5.68-4.777 0-1.87 1.209-3.844 3.871-4.822 2.148-.789 4.809-.763 7.295-.763h.543v-.605c0-.895.014-1.981-.549-2.904-.479-.783-1.469-1.625-3.473-1.625-1.561 0-3.461.435-4.844 1.883l-1.307-1.69c1.579-1.629 3.751-2.363 6.026-2.363zm3.639 9.345c-1.754 0-4.014-.11-5.547.255-2.117.505-2.979 1.884-2.979 3.11 0 1.509 1.309 2.922 3.547 2.922 2.211 0 3.824-1.341 4.438-1.992 1.139-1.211 1.146-2.305 1.146-3.18v-1.115h-.605zM139.459 320.036v2.582a6.278 6.278 0 0 1 5.33-2.966c3.32 0 6.85 2.663 6.85 8.62 0 6.188-3.633 9.082-7.082 9.082a6.1 6.1 0 0 1-5.066-2.683v8.385h-2.711l-.031-23.021h2.71zm.441 4.33c-.371.876-.445 1.902-.445 3.327 0 2.444-.012 3.835.482 4.974.668 1.535 2.258 2.328 3.859 2.328 1.58 0 5.074-.852 5.074-6.175 0-6.126-3.576-6.9-5.059-6.9-1.698 0-3.268.93-3.911 2.446z"/></g><g><path d="M25.564 366.747c-.042-.011-.126-.05-.125-.193 0-.084.016-.142-.051-.229-.417-.538-1.481-1.506-3.044-1.506-1.24 0-2.311.615-2.311 1.498 0 .368.19.899 1.086 1.333 1.025.495 2.791.743 4.03 1.438 1.297.729 1.609 1.72 1.609 2.479 0 1.655-1.565 3.424-4.562 3.424-1.666 0-3.342-.544-4.629-1.74l.994-1.72c.118.056.108.193.106.226-.004.097-.015.164.066.257.347.395 1.551 1.527 3.431 1.527 1.566 0 2.819-.708 2.819-1.735 0-.396-.189-.974-1.094-1.397-.809-.378-2.02-.669-2.947-1.005-.595-.215-2.671-.912-2.671-2.827 0-1.638 1.668-3.061 4.215-3.061 1.622 0 3.078.603 4.091 1.719l-1.013 1.512zM37.564 366.747c-.042-.011-.126-.05-.125-.193 0-.084.016-.142-.051-.229-.417-.538-1.481-1.506-3.044-1.506-1.24 0-2.311.615-2.311 1.498 0 .368.19.899 1.086 1.333 1.025.495 2.791.743 4.03 1.438 1.297.729 1.609 1.72 1.609 2.479 0 1.655-1.565 3.424-4.562 3.424-1.666 0-3.342-.544-4.629-1.74l.994-1.72c.118.056.108.193.106.226-.004.097-.015.164.066.257.347.395 1.551 1.527 3.431 1.527 1.566 0 2.819-.708 2.819-1.735 0-.396-.189-.974-1.094-1.397-.809-.378-2.02-.669-2.947-1.005-.595-.215-2.671-.912-2.671-2.827 0-1.638 1.668-3.061 4.215-3.061 1.622 0 3.078.603 4.091 1.719l-1.013 1.512zM41.879 358.793h1.989a.212.212 0 0 1 .012.071c0 .125-.098.199-.153.258a.279.279 0 0 0-.087.229v6.359c.805-1.222 2.157-2.195 3.645-2.195 1.25 0 2.374.701 2.919 1.935.39.882.396 1.787.396 2.643v6.649h-1.699v-6.607c0-.774-.005-1.716-.598-2.425a1.913 1.913 0 0 0-1.487-.694c-1.16 0-2.213.969-2.631 1.526-.456.607-.545 1.144-.545 1.883v6.317h-1.761v-15.949zM67.765 358.793c.026.162-.08.271-.136.345a.378.378 0 0 0-.092.276v9.404l5.489-5.096c.425.104.864.124 1.284.124h.622l-4.62 4.35 5.386 6.566h-.168c-1.149 0-2.069.083-2.069.083l-4.475-5.593-1.45 1.347v4.163h-1.74v-15.97h1.969zM86.752 367.407c.107.637.143 1.341.076 2.095h-7.782c.131 3.283 2.254 4.092 3.722 4.092 1.09 0 2.124-.434 2.839-1.233l.953.932c-.939 1.129-2.36 1.702-3.926 1.702-2.978 0-5.265-1.955-5.265-5.608 0-4.003 2.423-5.876 5.042-5.876 1.796-.001 3.843.953 4.341 3.896zm-1.623.769c.206-1.778-1.063-3.338-2.84-3.338-1.177 0-2.846.752-3.188 3.338h6.028zM91.454 363.784c.014.216-.106.337-.106.514 0 .069.018.123.044.191l3.211 8.078 2.092-5.883c.336-.944.647-1.917.829-2.921h1.802a48.224 48.224 0 0 1-1.098 3.17l-3.418 9.052c-.234.62-.466 1.198-.944 1.737-.731.822-1.759 1.187-2.749 1.187-.901 0-1.743-.309-2.375-.915l.891-1.554c.142.111.129.271.191.39.061.117.476.662 1.288.662.514 0 1.077-.224 1.533-.71.348-.37.566-.838.757-1.273l.353-.808-4.454-10.917h2.153zM113.113 363.784h1.596l-.021 1.077c.504-.767 1.344-1.348 2.244-1.348.982 0 1.768.691 1.939 1.597a2.695 2.695 0 0 1 2.457-1.595c.617 0 1.295.236 1.715.871.486.732.447 1.66.447 2.567v7.809h-1.637v-7.788c0-.499.055-1.126-.148-1.588-.176-.405-.516-.612-.869-.612-.666 0-1.094.683-1.275.989-.404.683-.461 1.152-.461 1.729v7.25h-1.615v-7.623c0-.452.033-.98-.109-1.439-.186-.602-.625-.845-1.016-.845-.439 0-.93.286-1.326 1.022-.311.577-.346 1.057-.346 1.573v7.312h-1.574v-10.958zM130.289 363.535c1.703 0 3.094.622 3.814 1.821.506.844.537 1.692.537 2.592v6.794h-1.635v-1.201c-1.197.98-2.592 1.471-3.938 1.471-2.291 0-3.689-1.495-3.689-3.104 0-1.216.785-2.497 2.514-3.133 1.395-.513 3.125-.496 4.74-.496h.352v-.394c0-.581.008-1.286-.357-1.887-.309-.508-.953-1.055-2.256-1.055-1.012 0-2.248.282-3.145 1.223l-.85-1.099c1.024-1.056 2.435-1.532 3.913-1.532zm2.363 6.07c-1.139 0-2.607-.072-3.604.166-1.375.328-1.934 1.224-1.934 2.02 0 .98.85 1.898 2.303 1.898 1.438 0 2.486-.87 2.885-1.294.738-.786.744-1.497.744-2.065v-.725h-.394zM137.838 363.784h1.762v1.927c.805-1.222 2.156-2.195 3.645-2.195 1.248 0 2.373.701 2.918 1.935.391.882.396 1.787.396 2.643v6.649h-1.699v-6.607c0-.774-.004-1.716-.598-2.425a1.912 1.912 0 0 0-1.486-.694c-1.16 0-2.213.969-2.631 1.526-.457.607-.545 1.144-.545 1.883v6.317h-1.762v-10.959zM154.289 363.535c1.703 0 3.094.622 3.814 1.821.506.844.537 1.692.537 2.592v6.794h-1.635v-1.201c-1.197.98-2.592 1.471-3.938 1.471-2.291 0-3.689-1.495-3.689-3.104 0-1.216.785-2.497 2.514-3.133 1.395-.513 3.125-.496 4.74-.496h.352v-.394c0-.581.008-1.286-.357-1.887-.309-.508-.953-1.055-2.256-1.055-1.012 0-2.248.282-3.145 1.223l-.85-1.099c1.024-1.056 2.435-1.532 3.913-1.532zm2.363 6.07c-1.139 0-2.607-.072-3.604.166-1.375.328-1.934 1.224-1.934 2.02 0 .98.85 1.898 2.303 1.898 1.438 0 2.486-.87 2.885-1.294.738-.786.744-1.497.744-2.065v-.725h-.394zM168.342 364.468a4.228 4.228 0 0 1 3.045-.974l.207 1.409a3.72 3.72 0 0 0-2.547.476 3.36 3.36 0 0 1 .559 1.858c0 2.023-1.779 3.756-3.951 3.756-.475 0-.947-.084-1.393-.25-.107.089-.783.646-.783 1.227 0 .346.244.604.664.72.234.063.748.138 1.566.138 1.242 0 2.566-.154 3.711.311 1.166.473 1.705 1.432 1.705 2.381 0 1.471-1.332 3.353-5.045 3.353-3.844 0-4.959-1.402-4.959-2.598 0-.871.607-1.678 1.783-2.429-.691-.364-.879-1.005-.879-1.461 0-.705.451-1.446 1.242-2.117a3.547 3.547 0 0 1-1.621-2.969c0-2.143 1.916-3.878 4.098-3.878 1 0 1.922.373 2.598 1.047zm-5.635 11.398c0 .383.195.986 1.08 1.339.83.329 1.764.358 2.264.358.734 0 1.662-.047 2.465-.48.754-.406 1.025-.979 1.025-1.455 0-.482-.291-1.123-1.309-1.276-.629-.095-1.514-.033-2.322-.063a20.498 20.498 0 0 1-1.836-.132c-.631.345-1.367.921-1.367 1.709zm2.932-6.261c1.332 0 2.414-1.081 2.414-2.409s-1.08-2.408-2.412-2.408a2.414 2.414 0 0 0-2.416 2.409 2.413 2.413 0 0 0 2.414 2.408zM182.752 367.407c.107.637.143 1.341.076 2.095h-7.783c.131 3.283 2.256 4.092 3.723 4.092 1.09 0 2.123-.434 2.838-1.233l.953.932c-.939 1.129-2.361 1.702-3.926 1.702-2.979 0-5.266-1.955-5.266-5.608 0-4.003 2.424-5.876 5.043-5.876 1.797-.001 3.844.953 4.342 3.896zm-1.623.769c.207-1.778-1.063-3.338-2.84-3.338-1.176 0-2.846.752-3.188 3.338h6.028zM188.387 363.784l-.063 2.113c.717-1.567 2.344-2.378 3.945-2.378 1.232 0 2.242.49 2.932 1.197l-.809 1.657c-.184-.177-.262-.366-.406-.55-.309-.394-.889-.821-1.811-.821-.775 0-2.084.272-3.082 1.848-.744 1.179-.77 1.906-.77 2.568v5.344h-1.74v-10.979h1.804z"/></g></svg>