<?xml version="1.0" encoding="UTF-8"?>
<!DOCTYPE svg  PUBLIC '-//W3C//DTD SVG 1.1//EN'  'http://www.w3.org/Graphics/SVG/1.1/DTD/svg11.dtd'>
<svg enable-background="new 0 0 109.5 124" version="1.1" viewBox="0 0 109.5 124" xml:space="preserve" xmlns="http://www.w3.org/2000/svg">
<g fill="#45B8A0">
	<path d="m59.201 43.793c2.186 0 3.959-1.773 3.959-3.96s-1.773-3.959-3.959-3.959h-4.02v-7.571h13.919c2.187 0 3.959-1.773 3.959-3.96s-1.773-3.959-3.959-3.959h-13.918v-16.425c0-2.187-1.773-3.959-3.96-3.959s-3.96 1.773-3.96 3.959v1.398h-4.105c-2.188 0-3.96 1.773-3.96 3.959 0 2.188 1.773 3.96 3.96 3.96h4.105v7.105h-16.309c-2.187 0-3.959 1.773-3.959 3.96s1.773 3.959 3.959 3.959h16.308v7.571h-27.691c-2.187 0-3.96 1.773-3.96 3.959 0 2.188 1.773 3.96 3.96 3.96h27.691v8.036h-20.528c-2.187 0-3.96 1.773-3.96 3.959 0 2.188 1.773 3.96 3.96 3.96h20.528v19.917h7.92v-19.912h3.088c2.187 0 3.959-1.773 3.959-3.96 0-2.186-1.773-3.959-3.959-3.959h-3.088v-8.036h4.02z"/>
	<path d="m90.764 35.874h-9.901c-2.188 0-3.96 1.773-3.96 3.959 0 2.188 1.773 3.96 3.96 3.96h9.901c2.187 0 3.959-1.773 3.959-3.96 1e-3 -2.187-1.772-3.959-3.959-3.959z"/>
	<circle cx="69.74" cy="39.833" r="3.844"/>
</g>
	<path d="m16.623 97.526h0.797l-0.01 0.538c0.252-0.383 0.672-0.673 1.121-0.673 0.491 0 0.884 0.345 0.97 0.797 0.212-0.484 0.702-0.797 1.228-0.797 0.308 0 0.647 0.118 0.857 0.435 0.243 0.366 0.224 0.83 0.224 1.283v3.902h-0.82v-3.891c0-0.249 0.027-0.563-0.074-0.793-0.088-0.203-0.258-0.306-0.435-0.306-0.333 0-0.546 0.341-0.637 0.494-0.202 0.341-0.23 0.576-0.23 0.864v3.623h-0.808v-3.809c0-0.226 0.017-0.49-0.054-0.719-0.093-0.301-0.313-0.422-0.508-0.422-0.219 0-0.464 0.143-0.663 0.511-0.155 0.289-0.173 0.528-0.173 0.786v3.654h-0.787v-5.477z"/>
	<path d="m27.439 99.336c0.054 0.318 0.071 0.67 0.038 1.046h-3.889c0.065 1.641 1.126 2.045 1.86 2.045 0.544 0 1.061-0.217 1.418-0.617l0.476 0.466c-0.469 0.564-1.18 0.85-1.961 0.85-1.488 0-2.631-0.977-2.631-2.802 0-2 1.211-2.936 2.52-2.936 0.897 0 1.92 0.477 2.169 1.948zm-0.811 0.384c0.103-0.888-0.531-1.668-1.419-1.668-0.588 0-1.422 0.376-1.593 1.668h3.012z"/>
	<path d="m31.365 95.901c0.042 0.122-0.044 0.195-0.068 0.324-0.057 0.304-0.139 1.291-0.139 1.291h1.791v0.714h-1.801c-0.069 0.712-0.104 1.428-0.104 2.144 0 0.794 0.029 1.005 0.035 1.053 0.088 0.658 0.513 0.884 0.922 0.884 0.337 0 0.762-0.155 1.228-0.5l0.269 0.683c-0.463 0.339-1.099 0.612-1.751 0.612-0.56 0-0.988-0.218-1.248-0.584-0.319-0.449-0.323-1-0.323-1.491 0-0.931 0.038-1.863 0.114-2.801h-1.283l0.01-0.704h1.304l0.104-1.47 0.94-0.155z"/>
	<path d="m36.258 97.526-0.031 1.056c0.359-0.784 1.171-1.188 1.972-1.188 0.616 0 1.12 0.245 1.465 0.598l-0.404 0.828c-0.092-0.088-0.131-0.183-0.203-0.275-0.154-0.196-0.444-0.41-0.905-0.41-0.388 0-1.042 0.136-1.54 0.923-0.372 0.589-0.385 0.953-0.385 1.283v2.67h-0.869v-5.485h0.9z"/>
	<path d="m43.634 97.515v4.792h1.284v0.693h-3.55v-0.693h1.397v-4.088h-1.325v-0.704h2.194zm0.207-1.765c0 0.339-0.277 0.616-0.621 0.616-0.343 0-0.621-0.277-0.621-0.616s0.278-0.616 0.621-0.616 0.621 0.277 0.621 0.616z"/>
	<path d="m51.032 99.14c-0.095-0.071-0.03-0.184-0.076-0.277-0.032-0.064-0.481-0.717-1.417-0.717-1.007 0-1.81 0.779-1.81 2.028 0 1.281 0.814 2.175 1.882 2.175 0.549 0 1.081-0.243 1.451-0.663l0.497 0.58c-0.522 0.563-1.256 0.87-2.021 0.87-1.55 0-2.699-1.22-2.699-2.873 0-1.645 1.144-2.852 2.753-2.852 0.881 0 1.618 0.382 2.049 1.015l-0.609 0.714z"/>
	<path d="m59.761 97.526v0.838c0.373-0.599 1.027-0.963 1.731-0.963 1.078 0 2.223 0.864 2.223 2.798 0 2.009-1.179 2.948-2.299 2.948-0.666 0-1.279-0.329-1.645-0.871v2.722h-0.88l-0.01-7.473h0.88zm0.143 1.405c-0.121 0.285-0.145 0.618-0.145 1.08 0 0.793-3e-3 1.245 0.157 1.615 0.216 0.498 0.733 0.756 1.253 0.756 0.513 0 1.647-0.276 1.647-2.004 0-1.989-1.161-2.24-1.642-2.24-0.551-1e-3 -1.061 0.301-1.27 0.793z"/>
	<path d="m67.209 97.401c0.851 0 1.546 0.311 1.906 0.911 0.252 0.421 0.269 0.845 0.269 1.294v3.395h-0.817v-0.6c-0.598 0.49-1.294 0.735-1.967 0.735-1.145 0-1.844-0.747-1.844-1.551 0-0.607 0.393-1.248 1.256-1.565 0.697-0.256 1.561-0.248 2.368-0.248h0.176v-0.196c0-0.291 4e-3 -0.643-0.178-0.943-0.155-0.254-0.477-0.527-1.127-0.527-0.506 0-1.123 0.141-1.572 0.611l-0.424-0.548c0.511-0.53 1.215-0.768 1.954-0.768zm1.181 3.033c-0.569 0-1.303-0.036-1.801 0.083-0.687 0.164-0.966 0.611-0.966 1.009 0 0.49 0.424 0.949 1.151 0.949 0.718 0 1.242-0.435 1.44-0.646 0.37-0.393 0.372-0.749 0.372-1.032v-0.362h-0.196z"/>
	<path d="m72.258 97.526-0.031 1.056c0.359-0.784 1.171-1.188 1.972-1.188 0.616 0 1.12 0.245 1.465 0.598l-0.404 0.828c-0.092-0.088-0.131-0.183-0.203-0.275-0.154-0.196-0.444-0.41-0.905-0.41-0.388 0-1.042 0.136-1.54 0.923-0.372 0.589-0.385 0.953-0.385 1.283v2.67h-0.869v-5.485h0.9z"/>
	<path d="m80.845 99.006c-0.021-5e-3 -0.063-0.025-0.063-0.097 0-0.042 8e-3 -0.071-0.025-0.114-0.208-0.269-0.74-0.752-1.521-0.752-0.62 0-1.154 0.307-1.154 0.748 0 0.184 0.095 0.45 0.542 0.666 0.512 0.248 1.395 0.372 2.014 0.719 0.648 0.364 0.804 0.86 0.804 1.239 0 0.827-0.782 1.71-2.279 1.71-0.833 0-1.67-0.271-2.313-0.869l0.497-0.859c0.059 0.028 0.054 0.097 0.053 0.113-2e-3 0.048-7e-3 0.082 0.033 0.128 0.174 0.197 0.775 0.763 1.714 0.763 0.783 0 1.409-0.354 1.409-0.867 0-0.198-0.095-0.486-0.547-0.698-0.404-0.189-1.009-0.334-1.472-0.502-0.298-0.107-1.335-0.456-1.335-1.413 0-0.818 0.833-1.529 2.106-1.529 0.811 0 1.538 0.301 2.044 0.859l-0.507 0.755z"/>
	<path d="m87.439 99.336c0.054 0.318 0.071 0.67 0.038 1.046h-3.889c0.065 1.641 1.126 2.045 1.86 2.045 0.544 0 1.061-0.217 1.418-0.617l0.476 0.466c-0.469 0.564-1.18 0.85-1.961 0.85-1.488 0-2.631-0.977-2.631-2.802 0-2 1.211-2.936 2.52-2.936 0.897 0 1.92 0.477 2.169 1.948zm-0.811 0.384c0.103-0.888-0.531-1.668-1.419-1.668-0.588 0-1.422 0.376-1.593 1.668h3.012z"/>
	<path d="m90.258 97.526-0.031 1.056c0.359-0.784 1.171-1.188 1.972-1.188 0.616 0 1.12 0.245 1.465 0.598l-0.404 0.828c-0.092-0.088-0.131-0.183-0.203-0.275-0.154-0.196-0.444-0.41-0.905-0.41-0.388 0-1.042 0.136-1.54 0.923-0.372 0.589-0.385 0.953-0.385 1.283v2.67h-0.869v-5.485h0.9z"/>
	<path d="m3.28 116.62h0.07l2.167 5.71h-0.652l-0.622-1.639h-1.779l-0.544 1.647h-0.621l1.981-5.718zm0.031 1.445-0.723 2.136h1.515l-0.792-2.136z"/>
	<path d="m9.186 117.93c-0.02-6e-3 -0.045-0.024-0.047-0.074-1e-3 -0.033 3e-3 -0.052-0.021-0.086-0.217-0.317-0.619-0.556-1.142-0.556-0.642 0-1.013 0.392-1.013 0.822 0 0.229 0.104 0.562 0.573 0.836 0.513 0.3 1.304 0.46 1.792 0.919 0.351 0.331 0.436 0.722 0.436 1.016 0 0.706-0.504 1.621-1.87 1.621-0.692 0-1.321-0.243-1.762-0.723l0.373-0.645c0.043 0.022 0.042 0.072 0.041 0.086 0 0.037-3e-3 0.06 0.025 0.096 0.251 0.317 0.725 0.619 1.341 0.619 0.814 0 1.225-0.529 1.225-1.018 0-0.251-0.103-0.544-0.471-0.774-0.424-0.266-1.234-0.46-1.753-0.843-0.468-0.346-0.596-0.767-0.596-1.094 0-0.767 0.696-1.438 1.709-1.438 0.612 0 1.176 0.248 1.556 0.699l-0.396 0.537z"/>
	<path d="m14.331 116.72v0.567h-1.655v5.058h-0.637v-5.058h-1.593v-0.567h3.885z"/>
	<path d="m18.543 119.2v0.598h-3.24v-0.598h3.24z"/>
	<path d="m20.464 116.34c0.016 0.054-0.034 0.089-0.049 0.101-0.042 0.034-0.052 0.053-0.052 0.101v2.308c0.261-0.452 0.744-0.731 1.268-0.731 0.808 0 1.654 0.667 1.654 2.104 0 1.492-0.876 2.208-1.719 2.208-0.494 0-0.947-0.244-1.217-0.646l-0.226 0.544h-0.419v-5.99h0.76zm7e-3 2.937c-0.094 0.226-0.108 0.491-0.108 0.863 0 0.356-3e-3 0.599 0.025 0.813 0.104 0.784 0.725 0.896 1.006 0.896 0.402 0 1.216-0.23 1.216-1.489 0-1.452-0.819-1.684-1.206-1.684-0.406 0-0.78 0.23-0.933 0.601z"/>
	<path d="m25.95 118.13c0.638 0 1.16 0.233 1.43 0.684 0.19 0.316 0.202 0.635 0.202 0.972v2.548h-0.614v-0.451c-0.449 0.368-0.971 0.552-1.477 0.552-0.859 0-1.384-0.561-1.384-1.164 0-0.456 0.294-0.937 0.943-1.175 0.523-0.192 1.171-0.186 1.777-0.186h0.132v-0.148c0-0.218 3e-3 -0.482-0.134-0.708-0.116-0.19-0.357-0.396-0.846-0.396-0.38 0-0.843 0.106-1.18 0.459l-0.318-0.412c0.386-0.396 0.915-0.575 1.469-0.575zm0.886 2.277c-0.427 0-0.978-0.027-1.352 0.062-0.516 0.124-0.726 0.459-0.726 0.758 0 0.368 0.319 0.712 0.864 0.712 0.539 0 0.932-0.326 1.081-0.485 0.278-0.294 0.279-0.562 0.279-0.774v-0.272h-0.146z"/>
	<path d="m31.678 119.33c-0.016-4e-3 -0.047-0.019-0.047-0.072 0-0.032 6e-3 -0.053-0.019-0.086-0.157-0.202-0.556-0.565-1.142-0.565-0.465 0-0.866 0.231-0.866 0.562 0 0.138 0.071 0.338 0.407 0.5 0.384 0.186 1.047 0.279 1.512 0.54 0.486 0.273 0.604 0.646 0.604 0.93 0 0.621-0.587 1.284-1.711 1.284-0.625 0-1.253-0.204-1.736-0.653l0.373-0.645c0.044 0.021 0.041 0.072 0.04 0.084-2e-3 0.036-6e-3 0.062 0.025 0.096 0.13 0.148 0.582 0.573 1.287 0.573 0.587 0 1.058-0.266 1.058-0.651 0-0.148-0.071-0.365-0.411-0.524-0.303-0.142-0.757-0.251-1.105-0.377-0.223-0.081-1.002-0.342-1.002-1.061 0-0.614 0.626-1.148 1.581-1.148 0.608 0 1.154 0.226 1.535 0.645l-0.383 0.568z"/>
	<path d="m36.624 119.58c0.041 0.239 0.054 0.503 0.029 0.785h-2.919c0.049 1.232 0.845 1.535 1.396 1.535 0.409 0 0.797-0.163 1.065-0.463l0.357 0.35c-0.352 0.423-0.885 0.638-1.473 0.638-1.117 0-1.975-0.733-1.975-2.104 0-1.501 0.909-2.204 1.891-2.204 0.674 1e-3 1.442 0.359 1.629 1.463zm-0.609 0.288c0.077-0.667-0.399-1.252-1.065-1.252-0.441 0-1.067 0.282-1.195 1.252h2.26z"/>
	<path d="m40.507 116.34h0.691c3e-3 0.062-0.031 0.106-0.049 0.135-0.032 0.05-0.036 0.075-0.036 0.122l8e-3 5.353c0 0.125 6e-3 0.255 0.039 0.381h-0.645c-0.033-0.1-0.039-0.205-0.039-0.303v-0.357c-0.258 0.461-0.744 0.751-1.27 0.751-0.795 0-1.636-0.664-1.636-2.182 0-1.572 0.947-2.128 1.731-2.128 0.568 0 1.008 0.285 1.206 0.708v-2.48zm-2.308 3.793c0 1.355 0.692 1.716 1.158 1.716 0.429 0 0.854-0.287 1.013-0.78 0.066-0.208 0.085-0.438 0.085-0.749 0-0.459-0.018-0.688-0.069-0.88-0.163-0.61-0.694-0.802-1.055-0.802-0.473 1e-3 -1.132 0.324-1.132 1.495z"/>
	<path d="m50.517 116.86-0.295 0.599c-0.028 2e-3 -0.068-0.014-0.073-0.075-3e-3 -0.039 4e-3 -0.063-0.025-0.107-0.173-0.262-0.502-0.471-0.898-0.471-0.34 0-0.658 0.152-0.827 0.456-0.154 0.275-0.15 0.591-0.15 0.889v0.318h1.344v0.513h-1.344v3.356h-0.622v-3.356h-0.893v-0.513h0.893v-0.404c0-0.365 0.015-0.708 0.226-1.051 0.287-0.467 0.828-0.716 1.406-0.716 0.517 0 0.964 0.208 1.258 0.562z"/>
	<path d="m52.958 122.44c-1.037 0-1.927-0.882-1.927-2.133 0-1.271 0.898-2.179 1.947-2.179 0.935 0 1.831 0.745 1.831 2.165 0 1.364-0.877 2.147-1.851 2.147zm-1.243-2.19c0 1.015 0.592 1.63 1.248 1.63 0.6 0 1.193-0.525 1.193-1.561 0-1.129-0.63-1.641-1.223-1.641-0.629 1e-3 -1.218 0.564-1.218 1.572z"/>
	<path d="m56.736 118.22-0.023 0.792c0.27-0.588 0.879-0.892 1.48-0.892 0.462 0 0.84 0.184 1.099 0.449l-0.303 0.622c-0.069-0.066-0.098-0.137-0.152-0.207-0.116-0.147-0.333-0.308-0.679-0.308-0.291 0-0.782 0.103-1.155 0.693-0.28 0.442-0.29 0.715-0.29 0.963v2.004h-0.653v-4.118h0.676z"/>
	<path d="m60.008 118.22h0.598l-8e-3 0.404c0.189-0.288 0.504-0.505 0.842-0.505 0.369 0 0.663 0.259 0.728 0.599 0.16-0.364 0.527-0.598 0.921-0.598 0.231 0 0.486 0.089 0.644 0.327 0.182 0.275 0.167 0.623 0.167 0.963v2.929h-0.614v-2.921c0-0.187 0.02-0.422-0.056-0.595-0.066-0.152-0.193-0.23-0.327-0.23-0.25 0-0.41 0.256-0.478 0.371-0.152 0.256-0.173 0.432-0.173 0.648v2.719h-0.606v-2.859c0-0.17 0.013-0.368-0.041-0.541-0.069-0.226-0.234-0.316-0.381-0.316-0.165 0-0.349 0.107-0.497 0.383-0.117 0.217-0.13 0.396-0.13 0.59v2.743h-0.59v-4.111z"/>
	<path d="m65.386 118.22v2.292c0 0.276-1e-3 0.597 0.145 0.887 0.164 0.325 0.464 0.503 0.786 0.503 0.396 0 0.762-0.266 0.95-0.61 0.138-0.251 0.162-0.496 0.162-0.812v-2.261h0.652v3.737c0 0.121 7e-3 0.25 0.047 0.373h-0.684c-0.017-0.106-0.019-0.213-0.016-0.318l8e-3 -0.311c-0.268 0.454-0.754 0.73-1.27 0.73-0.535 0-1.038-0.299-1.278-0.839-0.161-0.361-0.165-0.722-0.163-1.08l8e-3 -2.292h0.653z"/>
	<path d="m71.246 116.35v5.462h1.212v0.521h-3.084v-0.521h1.22v-4.941h-1.166v-0.521h1.818z"/>
	<path d="m75.45 118.13c0.638 0 1.16 0.233 1.43 0.684 0.19 0.316 0.202 0.635 0.202 0.972v2.548h-0.614v-0.451c-0.449 0.368-0.971 0.552-1.477 0.552-0.859 0-1.384-0.561-1.384-1.164 0-0.456 0.294-0.937 0.943-1.175 0.523-0.192 1.171-0.186 1.777-0.186h0.132v-0.148c0-0.218 3e-3 -0.482-0.134-0.708-0.116-0.19-0.357-0.396-0.846-0.396-0.38 0-0.843 0.106-1.18 0.459l-0.318-0.412c0.386-0.396 0.915-0.575 1.469-0.575zm0.886 2.277c-0.427 0-0.978-0.027-1.352 0.062-0.516 0.124-0.726 0.459-0.726 0.758 0 0.368 0.319 0.712 0.864 0.712 0.539 0 0.932-0.326 1.081-0.485 0.278-0.294 0.279-0.562 0.279-0.774v-0.272h-0.146z"/>
	<path d="m83.363 118.22v0.629c0.28-0.45 0.771-0.723 1.299-0.723 0.809 0 1.669 0.648 1.669 2.1 0 1.508-0.885 2.213-1.726 2.213-0.5 0-0.959-0.247-1.234-0.654v2.043h-0.66l-8e-3 -5.609h0.66zm0.108 1.055c-0.09 0.213-0.109 0.463-0.109 0.811 0 0.596-2e-3 0.935 0.118 1.212 0.162 0.374 0.55 0.567 0.94 0.567 0.385 0 1.236-0.208 1.236-1.504 0-1.493-0.872-1.682-1.232-1.682-0.414 0-0.797 0.227-0.953 0.596z"/>
	<path d="m88.95 118.13c0.638 0 1.16 0.233 1.43 0.684 0.19 0.316 0.202 0.635 0.202 0.972v2.548h-0.614v-0.451c-0.449 0.368-0.971 0.552-1.477 0.552-0.859 0-1.384-0.561-1.384-1.164 0-0.456 0.294-0.937 0.943-1.175 0.523-0.192 1.171-0.186 1.777-0.186h0.132v-0.148c0-0.218 3e-3 -0.482-0.134-0.708-0.116-0.19-0.357-0.396-0.846-0.396-0.38 0-0.843 0.106-1.18 0.459l-0.318-0.412c0.386-0.396 0.915-0.575 1.469-0.575zm0.886 2.277c-0.427 0-0.978-0.027-1.352 0.062-0.516 0.124-0.726 0.459-0.726 0.758 0 0.368 0.319 0.712 0.864 0.712 0.539 0 0.932-0.326 1.081-0.485 0.278-0.294 0.279-0.562 0.279-0.774v-0.272h-0.146z"/>
	<path d="m92.736 118.22-0.023 0.792c0.27-0.588 0.879-0.892 1.48-0.892 0.462 0 0.84 0.184 1.099 0.449l-0.303 0.622c-0.069-0.066-0.098-0.137-0.152-0.207-0.116-0.147-0.333-0.308-0.679-0.308-0.291 0-0.782 0.103-1.155 0.693-0.28 0.442-0.29 0.715-0.29 0.963v2.004h-0.653v-4.118h0.676z"/>
	<path d="m99.178 119.33c-0.016-4e-3 -0.047-0.019-0.047-0.072 0-0.032 6e-3 -0.053-0.019-0.086-0.157-0.202-0.556-0.565-1.142-0.565-0.465 0-0.866 0.231-0.866 0.562 0 0.138 0.071 0.338 0.407 0.5 0.384 0.186 1.047 0.279 1.512 0.54 0.486 0.273 0.604 0.646 0.604 0.93 0 0.621-0.587 1.284-1.711 1.284-0.625 0-1.253-0.204-1.736-0.653l0.373-0.645c0.044 0.021 0.041 0.072 0.04 0.084-2e-3 0.036-6e-3 0.062 0.025 0.096 0.13 0.148 0.582 0.573 1.287 0.573 0.587 0 1.058-0.266 1.058-0.651 0-0.148-0.071-0.365-0.411-0.524-0.303-0.142-0.757-0.251-1.105-0.377-0.223-0.081-1.002-0.342-1.002-1.061 0-0.614 0.626-1.148 1.581-1.148 0.608 0 1.154 0.226 1.535 0.645l-0.383 0.568z"/>
	<path d="m104.12 119.58c0.041 0.239 0.054 0.503 0.029 0.785h-2.919c0.049 1.232 0.845 1.535 1.396 1.535 0.409 0 0.797-0.163 1.065-0.463l0.357 0.35c-0.352 0.423-0.885 0.638-1.473 0.638-1.117 0-1.975-0.733-1.975-2.104 0-1.501 0.909-2.204 1.891-2.204 0.674 1e-3 1.442 0.359 1.629 1.463zm-0.609 0.288c0.077-0.667-0.399-1.252-1.065-1.252-0.441 0-1.067 0.282-1.195 1.252h2.26z"/>
	<path d="m106.24 118.22-0.023 0.792c0.27-0.588 0.879-0.892 1.48-0.892 0.462 0 0.84 0.184 1.099 0.449l-0.303 0.622c-0.069-0.066-0.098-0.137-0.152-0.207-0.116-0.147-0.333-0.308-0.679-0.308-0.291 0-0.782 0.103-1.155 0.693-0.28 0.442-0.29 0.715-0.29 0.963v2.004h-0.652v-4.118h0.675z"/>
</svg>
